<?xml version="1.0" encoding="UTF-8" standalone="no"?>
<!-- Created with Inkscape (http://www.inkscape.org/) -->

<svg
   xmlns:dc="http://purl.org/dc/elements/1.1/"
   xmlns:cc="http://creativecommons.org/ns#"
   xmlns:rdf="http://www.w3.org/1999/02/22-rdf-syntax-ns#"
   xmlns:svg="http://www.w3.org/2000/svg"
   xmlns="http://www.w3.org/2000/svg"
   xmlns:xlink="http://www.w3.org/1999/xlink"
   xmlns:sodipodi="http://sodipodi.sourceforge.net/DTD/sodipodi-0.dtd"
   xmlns:inkscape="http://www.inkscape.org/namespaces/inkscape"
   width="298"
   height="80.07373"
   id="svg3606"
   version="1.1"
   inkscape:version="0.48.2 r9819"
   sodipodi:docname="fraktio-logo.svg"
   viewBox="0 0 298 80.07373">
  <defs
     id="defs3608">
    <clipPath
       clipPathUnits="userSpaceOnUse"
       id="clipPath3202">
      <path
         inkscape:connector-curvature="0"
         d="m 663.19,237.73 9.462,-1.576 2.929,-9.122 -7.655,1.276 3.88,-7.715 6.175,-1.034 1.459,-4.543 -5.274,0.88 13.816,-27.486 0,77.177 -0.08,0.014 c -14.691,0.223 -28.843,2.669 -42.133,7.021 l 0,0 -0.131,0.021 17.552,-34.913 z"
         id="path3204" />
    </clipPath>
    <linearGradient
       x1="0"
       y1="0"
       x2="1"
       y2="0"
       gradientUnits="userSpaceOnUse"
       gradientTransform="matrix(-37.442322,-47.923981,47.923981,-37.442322,691.84375,262.56934)"
       spreadMethod="pad"
       id="linearGradient3210">
      <stop
         style="stop-opacity:1;stop-color:#f0441d"
         offset="0"
         id="stop3212" />
      <stop
         style="stop-opacity:1;stop-color:#ee2239"
         offset="0.646545"
         id="stop3214" />
      <stop
         style="stop-opacity:1;stop-color:#ec086d"
         offset="1"
         id="stop3216" />
    </linearGradient>
    <clipPath
       clipPathUnits="userSpaceOnUse"
       id="clipPath3180">
      <path
         inkscape:connector-curvature="0"
         d="m 734.446,272.622 c -13.29,-4.352 -27.442,-6.798 -42.134,-7.021 l 0,0 -0.08,-0.014 0,-77.177 13.817,27.486 -5.274,-0.88 1.459,4.543 6.175,1.034 3.88,7.715 -7.656,-1.276 2.93,9.122 9.462,1.576 17.551,34.913 -0.13,-0.021 z"
         id="path3182" />
    </clipPath>
    <linearGradient
       x1="0"
       y1="0"
       x2="1"
       y2="0"
       gradientUnits="userSpaceOnUse"
       gradientTransform="matrix(37.442322,-47.923981,-47.923981,-37.442322,688.36914,262.56934)"
       spreadMethod="pad"
       id="linearGradient3188">
      <stop
         style="stop-opacity:1;stop-color:#f0441d"
         offset="0"
         id="stop3190" />
      <stop
         style="stop-opacity:1;stop-color:#ee2239"
         offset="0.646545"
         id="stop3192" />
      <stop
         style="stop-opacity:1;stop-color:#ec086d"
         offset="1"
         id="stop3194" />
    </linearGradient>
    <linearGradient
       inkscape:collect="always"
       xlink:href="#linearGradient3188"
       id="linearGradient4710"
       gradientUnits="userSpaceOnUse"
       gradientTransform="matrix(37.442322,-47.923981,-47.923981,-37.442322,688.36914,262.56934)"
       spreadMethod="pad"
       x1="0"
       y1="0"
       x2="1"
       y2="0" />
    <linearGradient
       inkscape:collect="always"
       xlink:href="#linearGradient3210"
       id="linearGradient4712"
       gradientUnits="userSpaceOnUse"
       gradientTransform="matrix(-37.442322,-47.923981,47.923981,-37.442322,691.84375,262.56934)"
       spreadMethod="pad"
       x1="0"
       y1="0"
       x2="1"
       y2="0" />
  </defs>
  <sodipodi:namedview
     id="base"
     pagecolor="#ffffff"
     bordercolor="#666666"
     borderopacity="1.0"
     inkscape:pageopacity="0.0"
     inkscape:pageshadow="2"
     inkscape:zoom="0.76"
     inkscape:cx="281.39495"
     inkscape:cy="97.599888"
     inkscape:document-units="px"
     inkscape:current-layer="layer1"
     showgrid="false"
     inkscape:window-width="1759"
     inkscape:window-height="627"
     inkscape:window-x="489"
     inkscape:window-y="282"
     inkscape:window-maximized="0"
     fit-margin-top="0"
     fit-margin-left="0"
     fit-margin-right="0"
     fit-margin-bottom="0" />
  <metadata
     id="metadata3611">
    <rdf:RDF>
      <cc:Work
         rdf:about="">
        <dc:format>image/svg+xml</dc:format>
        <dc:type
           rdf:resource="http://purl.org/dc/dcmitype/StillImage" />
      </cc:Work>
    </rdf:RDF>
  </metadata>
  <g
     inkscape:label="Layer 1"
     inkscape:groupmode="layer"
     id="layer1"
     transform="translate(-42.368177,-617.03934)">
    <g
       id="g3148"
       transform="matrix(0.95127568,0,0,-0.95062181,150.84117,649.77127)">
      <path
         d="m 0,0 c 0,4.938 1.068,8.653 3.205,11.146 2.137,2.492 5.529,3.738 10.184,3.738 4.652,0 8.688,-1.258 12.106,-3.776 0.048,-0.332 0.071,-0.818 0.071,-1.459 C 25.566,9.009 25.4,7.952 25.068,6.48 24.735,5.009 24.285,3.822 23.715,2.919 l -5.983,0 C 16.879,4.534 16.427,6.054 16.38,7.479 15.811,7.573 15.335,7.62 14.956,7.62 13.15,7.62 11.869,7.122 11.109,6.124 10.35,5.127 9.971,3.323 9.971,0.712 l 0,-2.705 10.896,0 0,-6.553 -10.896,0 0,-20.155 c 3.56,-0.711 5.981,-1.637 7.263,-2.776 l -0.712,-5.482 -19.727,0 -0.711,5.482 c 0.664,0.901 1.969,1.709 3.916,2.422 l 0,20.509 -3.133,0 -0.783,4.914 c 1.043,0.949 2.35,1.495 3.916,1.639 L 0,0 z"
         style="fill:#ffffff;fill-opacity:1;fill-rule:nonzero;stroke:none"
         id="path3150"
         inkscape:connector-curvature="0" />
    </g>
    <g
       id="g3152"
       transform="matrix(0.95127568,0,0,-0.95062181,192.76239,659.38426)">
      <path
         d="m 0,0 c -3.607,0 -6.102,-0.689 -7.477,-2.066 l 0,-16.308 c 3.846,-0.711 6.481,-1.709 7.905,-2.99 l -0.712,-5.483 -20.368,0 -0.711,5.483 c 0.664,0.9 1.968,1.709 3.916,2.422 l 0,19.796 c -1.662,0.57 -2.967,1.376 -3.916,2.421 l 0.711,5.485 c 2.611,0.569 4.961,0.853 7.05,0.853 2.089,0 3.822,-0.047 5.2,-0.141 l 0,-4.487 c 1.091,1.282 2.492,2.337 4.201,3.169 1.709,0.83 3.263,1.246 4.665,1.246 1.399,0 2.36,-0.119 2.884,-0.355 L 3.135,-0.215 C 2.184,-0.072 1.141,0 0,0"
         style="fill:#ffffff;fill-opacity:1;fill-rule:nonzero;stroke:none"
         id="path3154"
         inkscape:connector-curvature="0" />
    </g>
    <g
       id="g3156"
       transform="matrix(0.95127568,0,0,-0.95062181,209.72455,678.54423)">
      <path
         d="m 0,0 c 2.422,0 4.345,0.715 5.77,2.139 l 0,5.839 -4.987,0 c -3.418,0 -5.126,-1.307 -5.126,-3.916 0,-1.188 0.367,-2.164 1.105,-2.921 C -2.504,0.381 -1.423,0 0,0 m -12.817,23.645 c 0,0.711 0.023,1.47 0.072,2.279 4.414,2.373 9.162,3.56 14.241,3.56 5.08,0 8.725,-0.962 10.932,-2.884 2.208,-1.923 3.312,-5.117 3.312,-9.578 l 0,-15.17 C 17.4,1.52 18.705,1.115 19.656,0.643 l 0,-6.196 C 17.235,-6.691 13.769,-7.262 9.259,-7.262 8.783,-6.029 8.381,-4.533 8.049,-2.777 6.006,-5.77 2.304,-7.262 -3.061,-7.262 c -3.18,0 -5.899,0.924 -8.153,2.776 -2.256,1.851 -3.385,4.367 -3.385,7.549 0,3.18 1.058,5.686 3.17,7.514 2.113,1.826 5.259,2.742 9.437,2.742 l 7.762,0 0,3.417 c 0,3.704 -1.971,5.556 -5.912,5.556 -1.472,0 -2.682,-0.143 -3.63,-0.428 -0.096,-1.994 -0.381,-3.537 -0.856,-4.629 l -6.978,0 c -0.807,1.661 -1.211,3.798 -1.211,6.41"
         style="fill:#ffffff;fill-opacity:1;fill-rule:nonzero;stroke:none"
         id="path3158"
         inkscape:connector-curvature="0" />
    </g>
    <g
       id="g3160"
       transform="matrix(0.95127568,0,0,-0.95062181,255.58182,684.90519)">
      <path
         d="m 0,0 -12.605,18.444 7.834,10.182 c -0.807,0.475 -1.378,0.973 -1.709,1.496 l 0.71,5.484 15.668,0 0.713,-5.484 C 9.566,28.792 7.596,27.748 4.699,26.989 L -2.137,19.155 5.91,8.543 C 8.854,7.879 10.919,6.859 12.105,5.482 L 11.394,0 0,0 z m -26.422,50.562 c 2.66,0.615 5.128,0.924 7.407,0.924 2.279,0 4.202,-0.069 5.768,-0.213 l 0,-43.369 c 1.852,-0.713 3.157,-1.521 3.918,-2.422 L -10.041,0 -26.422,0 -27.133,5.482 c 0.663,0.901 1.969,1.709 3.916,2.422 l 0,34.752 c -1.662,0.57 -2.967,1.376 -3.916,2.421 l 0.711,5.485 z"
         style="fill:#ffffff;fill-opacity:1;fill-rule:nonzero;stroke:none"
         id="path3162"
         inkscape:connector-curvature="0" />
    </g>
    <g
       id="g3164"
       transform="matrix(0.95127568,0,0,-0.95062181,279.81797,642.5273)">
      <path
         d="m 0,0 0,-8.973 10.184,0 0,-5.982 -10.184,0 0,-18.018 c 0,-1.519 0.213,-2.625 0.641,-3.311 0.425,-0.69 1.447,-1.033 3.062,-1.033 1.611,0 3.348,0.357 5.199,1.068 l 2.137,-5.555 c -3.656,-1.853 -7.394,-2.775 -11.217,-2.775 -3.822,0 -6.409,0.816 -7.762,2.455 -1.354,1.639 -2.03,4.023 -2.03,7.157 l 0,20.012 -3.204,0 -0.783,4.345 c 0.758,0.9 2.324,1.802 4.7,2.706 0.569,3.891 1.922,6.526 4.059,7.904 L 0,0 z"
         style="fill:#ffffff;fill-opacity:1;fill-rule:nonzero;stroke:none"
         id="path3166"
         inkscape:connector-curvature="0" />
    </g>
    <g
       id="g3168"
       transform="matrix(0.95127568,0,0,-0.95062181,299.27917,646.38553)">
      <path
         d="m 0,0 c -3.963,0 -5.945,1.791 -5.945,5.376 0,3.585 1.982,5.377 5.945,5.377 3.963,0 5.947,-1.792 5.947,-5.377 C 5.947,1.791 3.963,0 0,0 m -8.082,-4.914 c 2.658,0.615 5.127,0.926 7.406,0.926 2.28,0 4.203,-0.073 5.77,-0.214 l 0,-28.414 c 1.849,-0.713 3.156,-1.522 3.916,-2.422 l -0.711,-5.483 -16.381,0 -0.711,5.483 c 0.664,0.9 1.969,1.709 3.916,2.422 l 0,19.797 c -1.662,0.569 -2.967,1.376 -3.916,2.421 l 0.711,5.484 z"
         style="fill:#ffffff;fill-opacity:1;fill-rule:nonzero;stroke:none"
         id="path3170"
         inkscape:connector-curvature="0" />
    </g>
    <g
       id="g3172"
       transform="matrix(0.95127568,0,0,-0.95062181,317.60795,667.7114)">
      <path
         d="m 0,0 c 0,-7.598 2.277,-11.396 6.834,-11.396 2.326,0 4.047,0.868 5.164,2.601 1.115,1.734 1.674,4.568 1.674,8.512 0,7.404 -2.326,11.108 -6.981,11.108 -2.277,0 -3.964,-0.819 -5.056,-2.458 C 0.543,6.73 0,3.939 0,0 m 6.301,-18.657 c -5.627,0 -9.793,1.492 -12.498,4.484 -2.707,2.992 -4.061,7.515 -4.061,13.568 0,6.053 1.508,10.683 4.524,13.886 3.013,3.205 7.345,4.808 12.996,4.808 5.65,0 9.838,-1.425 12.57,-4.274 2.729,-2.847 4.094,-7.299 4.094,-13.352 0,-6.053 -1.531,-10.755 -4.594,-14.101 -3.061,-3.347 -7.406,-5.019 -13.031,-5.019"
         style="fill:#ffffff;fill-opacity:1;fill-rule:nonzero;stroke:none"
         id="path3174"
         inkscape:connector-curvature="0" />
    </g>
    <g
       transform="matrix(0.95127568,0,0,-0.95062181,-571.81155,876.21972)"
       id="g3176">
      <g
         id="g3178"
         clip-path="url(#clipPath3180)">
        <g
           id="g3184">
          <g
             id="g3186">
            <path
               inkscape:connector-curvature="0"
               d="m 734.446,272.622 c -13.29,-4.352 -27.442,-6.798 -42.134,-7.021 l 0,0 -0.08,-0.014 0,-77.177 13.817,27.486 -5.274,-0.88 1.459,4.543 6.175,1.034 3.88,7.715 -7.656,-1.276 2.93,9.122 9.462,1.576 17.551,34.913 -0.13,-0.021 z"
               style="fill:url(#linearGradient4710);stroke:none"
               id="path3196" />
          </g>
        </g>
      </g>
    </g>
    <g
       transform="matrix(0.95127568,0,0,-0.95062181,-571.81155,876.21972)"
       id="g3198">
      <g
         id="g3200"
         clip-path="url(#clipPath3202)">
        <g
           id="g3206">
          <g
             id="g3208">
            <path
               inkscape:connector-curvature="0"
               d="m 663.19,237.73 9.462,-1.576 2.929,-9.122 -7.655,1.276 3.88,-7.715 6.175,-1.034 1.459,-4.543 -5.274,0.88 13.816,-27.486 0,77.177 -0.08,0.014 c -14.691,0.223 -28.843,2.669 -42.133,7.021 l 0,0 -0.131,0.021 17.552,-34.913 z"
               style="fill:url(#linearGradient4712);stroke:none"
               id="path3218" />
          </g>
        </g>
      </g>
    </g>
  </g>
</svg>
